HIERARCHY
ROOT Hips
{
	OFFSET 7.960896 100.257591 -3.909525
	CHANNELS 6 Xposition Yposition Zposition Xrotation Yrotation Zrotation
	JOINT Chest
	{
		OFFSET 4.069217 11.857132 5.385540
		CHANNELS 3 Xrotation Yrotation Zrotation
		JOINT Chest2
		{
			OFFSET 5.306213 17.021065 11.882503
			CHANNELS 3 Xrotation Yrotation Zrotation
			JOINT Chest3
			{
				OFFSET 3.884621 12.944824 6.337279
				CHANNELS 3 Xrotation Yrotation Zrotation
				JOINT Neck
				{
					OFFSET 3.895884 14.798645 8.027357
					CHANNELS 3 Xrotation Yrotation Zrotation
					JOINT Head
					{
						OFFSET 2.191299 9.360092 4.173077
						CHANNELS 3 Xrotation Yrotation Zrotation
						End Site
						{
							OFFSET 2.186991 9.390396 4.106710
						}
					}
				}
				JOINT LeftCollar
				{
					OFFSET 7.405914 9.340179 7.727724
					CHANNELS 3 Xrotation Yrotation Zrotation
					JOINT LeftUpArm
					{
						OFFSET 15.022415 1.822968 -8.916449
						CHANNELS 3 Xrotation Yrotation Zrotation
						JOINT LeftLowArm
						{
							OFFSET 30.567177 -12.826126 -6.392650
							CHANNELS 3 Xrotation Yrotation Zrotation
							JOINT LeftHand
							{
								OFFSET 11.014236 -24.015099 14.244599
								CHANNELS 3 Xrotation Yrotation Zrotation
								End Site
								{
									OFFSET 2.407249 -5.248634 3.113241
								}
							}
						}
					}
				}
				JOINT RightCollar
				{
					OFFSET -0.730589 10.497391 9.543570
					CHANNELS 3 Xrotation Yrotation Zrotation
					JOINT RightUpArm
					{
						OFFSET -16.929770 2.644135 -3.858471
						CHANNELS 3 Xrotation Yrotation Zrotation
						JOINT RightLowArm
						{
							OFFSET -30.705286 -13.891022 1.989798
							CHANNELS 3 Xrotation Yrotation Zrotation
							JOINT RightHand
							{
								OFFSET -14.824896 -18.696831 18.210041
								CHANNELS 3 Xrotation Yrotation Zrotation
								End Site
								{
									OFFSET -3.240128 -4.086365 3.980003
								}
							}
						}
					}
				}
			}
		}
	}
	JOINT LeftUpLeg
	{
		OFFSET 9.564294 -2.678131 -1.330794
		CHANNELS 3 Xrotation Yrotation Zrotation
		JOINT LeftLowLeg
		{
			OFFSET 5.052391 -41.621262 22.048422
			CHANNELS 3 Xrotation Yrotation Zrotation
			JOINT LeftFoot
			{
				OFFSET -4.695944 -33.447937 -29.321522
				CHANNELS 3 Xrotation Yrotation Zrotation
				JOINT LeftToe
				{
					OFFSET 5.493116 -16.155035 16.382919
					CHANNELS 3 Xrotation Yrotation Zrotation
					End Site
					{
						OFFSET 7.775911 -1.520802 22.288589
					}
				}
			}
		}
	}
	JOINT RightUpLeg
	{
		OFFSET -9.564358 2.677963 1.330716
		CHANNELS 3 Xrotation Yrotation Zrotation
		JOINT RightLowLeg
		{
			OFFSET -33.831509 -32.067184 -8.434258
			CHANNELS 3 Xrotation Yrotation Zrotation
			JOINT RightFoot
			{
				OFFSET -24.830574 -19.618275 -31.609270
				CHANNELS 3 Xrotation Yrotation Zrotation
				JOINT RightToe
				{
					OFFSET -15.225025 -17.963959 -2.247566
					CHANNELS 3 Xrotation Yrotation Zrotation
					End Site
					{
						OFFSET -12.611107 -15.036304 13.207027
					}
				}
			}
		}
	}
}
MOTION
Frames: 18
Frame Time: 0.033333
7.861717 99.244408 -3.900444 -0.000406 0.156633 -0.624117 0.873504 -0.484714 0.076716 -0.388773 0.174226 0.062907 -0.123119 0.084270 -0.002403 0.466796 0.002695 0.127252 0.000002 -0.000000 0.000000 0.911422 0.400879 0.015134 1.608176 -1.089505 0.062806 -3.268157 -7.500729 -4.502478 0.000002 -0.000005 0.000002 0.484246 -0.821027 -0.450205 2.204201 -0.888118 -1.164691 -1.893543 7.751135 3.634342 -0.000002 -0.000006 -0.000004 -2.226390 0.250754 0.259213 3.189996 -0.588869 1.037201 -0.465115 -0.715244 -0.380426 -0.000001 -0.000002 0.000000 0.684654 -0.449535 0.093378 0.052291 -0.120467 -0.306199 0.339339 0.844280 1.004136 0.000000 -0.000001 -0.000000 
7.737993 97.964600 -3.898851 -0.270195 0.216990 -1.115094 1.297462 -0.781339 0.261040 0.644731 -0.299201 0.030749 -1.207516 0.784708 0.084256 0.683720 0.432198 -0.079829 0.000001 -0.000002 -0.000000 1.307639 0.039733 0.012062 2.147829 -1.926925 0.147469 -6.755459 -13.981190 -10.454971 0.000004 -0.000004 0.000005 0.595291 -0.870706 -0.918253 3.146039 -1.623104 -2.624897 -3.235763 14.237115 9.271200 -0.000000 0.000003 -0.000000 -3.841866 0.445120 0.412873 5.851830 -1.095397 2.004947 -0.313326 -0.954550 -0.635625 -0.000001 0.000000 -0.000000 0.436070 -0.196562 -0.125166 0.830793 -0.748236 -0.439485 0.358412 2.055355 2.558025 0.000002 0.000001 -0.000003 
7.599327 96.748047 -3.901961 -0.063366 0.053266 -1.456547 1.961742 -0.950641 0.176949 0.387232 -0.318067 0.107300 -1.425425 0.651864 0.025124 0.323258 1.057554 -0.221682 0.000000 -0.000000 -0.000000 1.261050 0.129666 0.111273 2.019249 -2.705896 0.607570 -7.928579 -16.392078 -16.339286 0.000005 -0.000006 0.000001 0.702110 -0.243558 -1.247091 3.309116 -2.492759 -4.033615 -4.728965 18.329537 13.707096 -0.000000 -0.000006 -0.000003 -5.487566 0.572623 0.863440 7.996716 -1.492764 2.245271 -0.696896 -1.083212 -0.742931 -0.000000 0.000000 0.000000 -0.501421 0.556036 -0.240426 2.396218 -1.686760 -0.504869 0.207764 3.174698 4.126752 0.000002 -0.000001 -0.000003 
7.434655 95.599525 -3.907991 0.466739 -0.377673 -1.736449 1.988741 -0.804675 -0.124165 -0.131277 -0.027145 0.118981 -1.398373 0.714216 0.376760 -0.019445 1.690486 -0.191524 0.000000 -0.000001 0.000001 1.551292 0.222657 0.806509 2.395343 -4.331490 1.539420 -8.986087 -18.770319 -19.225367 0.000004 -0.000002 0.000001 0.564519 -0.359516 -2.314986 3.346617 -1.558816 -5.903301 -4.737905 20.555190 17.065747 -0.000002 -0.000004 -0.000003 -6.548893 0.621700 1.563178 8.957002 -1.940244 1.836630 -0.660450 -0.537354 -0.500351 -0.000000 -0.000002 0.000000 -0.956041 1.101637 -0.565277 3.022283 -2.096098 0.218958 0.012482 3.433259 4.580717 0.000002 -0.000003 -0.000003 
7.281828 94.555740 -3.915189 0.889749 -1.089788 -2.086543 1.412456 -0.564397 -0.107733 0.013199 -0.136227 0.061095 -1.389189 0.976569 0.558220 -0.116063 2.290689 -0.302319 0.000001 -0.000000 0.000000 1.422654 -0.578020 1.595902 1.951662 -4.874248 2.082035 -9.217939 -18.893633 -20.765337 0.000003 0.000002 0.000003 0.111140 -0.057958 -2.968454 2.541859 -0.677458 -7.158001 -3.649881 20.150289 20.014657 0.000003 -0.000006 -0.000003 -7.462966 0.717329 2.270220 9.447281 -2.216712 1.364422 -0.601377 0.120061 -0.155043 -0.000001 -0.000002 -0.000000 -2.033717 1.820498 -0.643249 3.593393 -2.270279 0.442978 0.077795 3.764070 5.377005 -0.000001 -0.000001 -0.000003 
7.127330 93.604698 -3.918511 0.934848 -1.655489 -2.345837 1.672437 -0.620775 -0.128564 -0.147348 -0.135290 0.051109 -1.509974 0.917739 0.459167 -0.028134 2.623487 -0.477632 -0.000000 -0.000002 -0.000000 1.038856 -0.652688 2.219786 1.738518 -5.234126 3.545561 -8.293285 -17.899622 -22.034779 0.000004 -0.000003 0.000002 -0.214748 0.659321 -3.555407 1.766866 -0.399847 -8.668360 -1.725436 18.760626 22.333677 0.000001 -0.000004 -0.000003 -8.082647 0.800277 2.604291 10.077188 -2.385740 1.520274 -0.485864 0.305871 -0.062501 -0.000000 0.000000 -0.000001 -3.024927 2.470197 -0.588797 4.502563 -2.801395 0.349133 0.804929 3.699928 6.036859 -0.000003 0.000001 -0.000002 
6.973538 92.747223 -3.935132 0.326719 -1.666199 -2.411452 2.560445 -0.890452 -0.201322 -0.495923 -0.065472 0.163099 -1.319042 0.808906 0.205215 0.033355 2.669558 -0.427029 0.000000 -0.000002 0.000001 0.891852 -0.864884 2.797553 1.812153 -5.531465 4.632966 -7.901431 -17.339934 -22.636393 0.000002 0.000000 0.000004 -0.664647 0.727627 -4.330630 1.388121 -0.232230 -10.029853 -1.340921 18.482085 23.797421 0.000003 -0.000004 -0.000004 -8.134592 0.754253 2.561657 10.598226 -2.595450 1.883820 -0.607947 0.288750 -0.033639 -0.000001 -0.000002 -0.000000 -2.761610 2.341153 -0.573730 5.381326 -3.279100 0.326139 0.615349 4.133017 6.571350 0.000005 -0.000004 -0.000003 
6.829096 91.972488 -3.958547 -0.088236 -2.147368 -2.658766 2.499405 -0.825267 -0.289729 -0.542171 -0.028394 0.165404 -1.181237 0.891153 0.349890 0.747726 2.742321 -0.640842 -0.000002 -0.000001 0.000000 1.009492 -1.247211 3.309222 1.691234 -6.380334 4.915479 -7.391649 -16.841698 -22.066121 0.000003 -0.000001 0.000002 -0.759863 0.833797 -4.753698 1.255410 -0.148944 -10.861298 -0.266968 17.796346 24.976960 0.000001 0.000000 -0.000002 -7.732496 0.737121 3.175063 10.491019 -2.613670 1.372392 -0.450049 0.720415 0.289184 -0.000001 0.000000 0.000000 -3.155833 2.541124 -0.388261 5.773121 -3.294068 -0.076656 0.780579 4.451753 7.065254 -0.000001 0.000001 -0.000005 
6.684730 91.281677 -3.981356 -0.363900 -1.962442 -2.548890 2.527916 -0.880919 -0.246591 -0.170867 -0.236657 0.193692 -1.379023 0.870457 0.134324 1.088154 2.683739 -0.698636 -0.000002 -0.000000 0.000001 1.071023 -1.071034 3.582688 1.636499 -6.808324 5.114210 -7.426652 -16.808436 -21.459846 0.000003 -0.000001 0.000003 -0.769767 1.068915 -5.235927 1.338098 -0.867271 -11.428771 -1.281608 18.475563 24.949207 -0.000001 -0.000000 0.000003 -7.523049 0.707579 2.954086 10.514125 -2.555791 1.898638 -0.649244 0.210956 -0.023385 -0.000001 0.000000 0.000000 -2.654730 2.220771 -0.542671 5.557943 -3.241310 -0.132793 1.034237 4.517895 7.258574 -0.000005 -0.000003 -0.000002 
6.551005 90.667953 -4.009894 -0.305972 -2.202760 -2.622632 2.195646 -0.783236 -0.206577 0.126528 -0.389334 0.198851 -1.488161 1.110934 0.210822 1.234619 2.591440 -0.722333 0.000002 -0.000000 0.000000 1.018567 -1.240249 3.662776 1.438952 -7.150954 5.348465 -7.080348 -16.257904 -21.356166 0.000002 -0.000001 0.000002 -0.945044 0.928973 -5.397845 0.985475 -0.488631 -12.195876 -0.504906 17.585331 25.163894 -0.000002 -0.000004 -0.000001 -7.459107 0.682137 3.232739 10.179450 -2.507103 1.771114 -0.331228 0.338259 0.033485 -0.000001 0.000000 -0.000000 -2.036666 1.780526 -0.514779 4.161636 -1.994676 -0.200879 1.957691 3.852067 7.201785 -0.000003 0.000001 -0.000001 
6.432035 90.124725 -4.040780 -0.340764 -2.387067 -2.697249 2.249975 -0.832806 -0.166501 -0.166609 -0.203158 0.198737 -1.175923 1.094373 0.253370 1.262979 2.502318 -0.678300 -0.000000 -0.000001 0.000000 1.095747 -1.288404 3.713875 1.633160 -7.151425 5.437562 -7.718171 -16.981669 -20.709962 0.000003 -0.000005 -0.000000 -1.041455 0.722380 -5.680907 1.050545 -0.250484 -12.330848 -0.807746 17.943815 24.621644 0.000002 0.000003 -0.000001 -7.468852 0.690062 3.345507 10.116887 -2.433795 1.794609 -0.485909 0.362735 0.087350 -0.000001 -0.000002 -0.000000 -2.163470 1.854763 -0.493460 4.178663 -2.031991 -0.277773 2.071649 3.871165 7.316995 -0.000003 0.000001 -0.000003 
6.318406 89.650299 -4.076550 -0.219953 -2.049883 -2.587183 2.192637 -0.851303 -0.081630 -0.264415 -0.215896 0.242935 -1.092083 0.986009 0.123983 1.072826 2.309200 -0.530858 0.000000 -0.000000 0.000000 1.124127 -1.751985 3.695496 1.583933 -7.344896 5.651637 -7.366738 -16.551912 -20.649904 0.000001 -0.000005 0.000002 -0.984348 1.090000 -5.850710 1.026901 -0.735689 -12.534948 -0.763156 17.630547 24.261476 -0.000001 0.000000 -0.000001 -7.569857 0.668605 3.012730 9.974534 -2.457931 2.422357 -0.536361 0.124120 -0.096843 -0.000000 -0.000002 0.000000 -1.791045 1.639056 -0.525711 4.183738 -2.120670 0.030411 1.503957 4.199307 7.373984 -0.000003 -0.000003 -0.000002 
6.210136 89.241684 -4.105262 -0.023196 -1.948486 -2.604153 2.252758 -0.902122 -0.053879 -0.809468 -0.087366 0.325937 -0.808567 0.653541 -0.039446 1.061665 2.086728 -0.384170 0.000002 -0.000001 -0.000001 1.173731 -1.424641 3.868660 1.580823 -7.599595 5.707095 -7.501739 -16.672517 -20.405277 0.000004 0.000001 0.000003 -0.983361 0.851669 -5.793076 1.081298 -0.892335 -12.646508 -0.431074 17.392196 24.376711 -0.000003 -0.000001 -0.000000 -7.720817 0.725202 3.086496 9.984434 -2.561581 2.343635 -0.530614 -0.058628 -0.335740 -0.000001 -0.000003 -0.000001 -1.983565 1.701860 -0.408586 4.126457 -2.054873 0.199697 1.571845 4.007279 7.237071 -0.000003 -0.000003 -0.000003 
6.107525 88.878159 -4.132443 -0.070623 -1.880610 -2.652811 2.261844 -0.889168 -0.076199 -0.748743 -0.288676 0.386792 -1.011245 0.516269 -0.144769 0.884787 2.202630 -0.404298 -0.000000 -0.000001 0.000001 1.098423 -1.492060 4.130848 1.283314 -7.918640 5.680003 -6.689131 -15.856682 -20.639467 0.000008 -0.000003 0.000004 -0.911176 1.268345 -5.704484 0.841271 -0.959798 -12.646958 -0.145212 16.962577 24.588083 0.000000 -0.000006 -0.000003 -7.957468 0.761519 3.144929 10.159189 -2.593152 2.482895 -0.620468 -0.184275 -0.435652 -0.000001 0.000000 0.000000 -2.012274 1.640577 -0.308248 4.613123 -2.446433 0.182861 1.200010 4.249122 7.248996 -0.000003 -0.000003 0.000002 
6.017751 88.568169 -4.167064 -0.398300 -1.996274 -2.670298 2.556931 -0.903177 -0.225180 -0.526679 -0.432242 0.398328 -1.302500 0.642862 -0.086928 0.860696 2.110410 -0.374561 0.000002 -0.000001 0.000001 1.068840 -1.721393 4.270280 1.079322 -8.179928 5.654718 -6.387071 -15.439885 -20.518105 0.000005 -0.000006 0.000001 -0.830206 1.532503 -5.595927 0.739866 -0.972089 -12.602868 0.209415 16.525469 24.673587 0.000002 0.000000 -0.000001 -7.302124 0.739126 3.295363 9.479759 -2.477043 2.280881 -0.210345 -0.186081 -0.482608 -0.000000 0.000000 -0.000000 -2.147944 1.692863 -0.214039 4.707743 -2.293925 -0.162468 1.691348 4.100164 7.559542 -0.000005 -0.000001 -0.000004 
5.929276 88.288017 -4.192408 -0.722388 -1.779127 -2.563593 2.721596 -0.946156 -0.281941 -0.456592 -0.426118 0.394562 -1.255590 0.622747 -0.031805 0.903211 2.009544 -0.289434 -0.000000 -0.000001 -0.000000 1.106675 -1.424844 4.162408 1.218126 -8.865753 5.549932 -6.569957 -15.872193 -19.705337 0.000001 -0.000005 0.000002 -0.717792 1.461436 -5.607789 0.970776 -0.578223 -12.521035 0.123846 16.655244 23.844740 0.000002 -0.000001 -0.000002 -7.005891 0.696918 3.142098 9.373505 -2.497552 2.403547 -0.256704 -0.228561 -0.548423 -0.000000 0.000004 -0.000001 -1.427868 1.262850 -0.319439 4.460854 -2.056016 -0.095003 1.439181 4.186512 7.536961 -0.000001 -0.000001 -0.000000 
5.852120 88.034843 -4.220488 -0.729919 -1.709802 -2.490349 2.840015 -0.978657 -0.267604 -0.652908 -0.361058 0.418626 -1.079920 0.586335 -0.061864 0.915658 1.952009 -0.339723 -0.000000 -0.000000 0.000000 1.019002 -1.629220 4.183016 0.899515 -9.628639 5.452437 -6.542804 -15.676375 -19.225984 0.000004 -0.000004 0.000000 -0.791733 1.690511 -5.717829 0.797049 -0.404399 -12.426767 0.540948 16.130098 23.772952 -0.000001 -0.000002 -0.000001 -7.115721 0.684156 3.042385 9.512638 -2.453084 2.561615 -0.110850 -0.382828 -0.672851 -0.000001 -0.000002 0.000000 -1.617717 1.412715 -0.394205 4.145150 -1.882051 -0.115347 1.743336 4.043551 7.579081 -0.000001 -0.000001 -0.000004 
5.779945 87.806290 -4.246576 -0.858308 -1.559311 -2.460728 2.922687 -1.006947 -0.223067 -0.586897 -0.385134 0.415468 -1.130135 0.680534 -0.022225 0.996327 1.757067 -0.325034 0.000000 -0.000000 0.000001 0.811174 -1.904813 4.237460 0.604580 -9.437874 5.406948 -6.283933 -15.065623 -19.871778 0.000006 -0.000004 0.000003 -0.984319 1.882180 -5.771217 0.453028 -0.446775 -12.435715 0.825115 15.599039 24.081458 0.000003 0.000000 -0.000001 -7.036879 0.658605 3.008385 9.489601 -2.371232 2.632362 0.011070 -0.392709 -0.670295 -0.000001 -0.000002 0.000000 -1.484596 1.327328 -0.451684 4.140803 -1.962645 -0.058009 1.667298 4.106488 7.701942 -0.000001 -0.000001 -0.000002 
